<svg width="33" height="33" viewBox="0 0 33 33" fill="none" xmlns="http://www.w3.org/2000/svg">
<g id="gg:edit-black-point">
<g id="Group">
<path id="Vector" fill-rule="evenodd" clip-rule="evenodd" d="M11.2024 16.1734C11.2024 14.7589 11.7643 13.4023 12.7645 12.4021C13.7647 11.4019 15.1212 10.84 16.5357 10.84C17.9502 10.84 19.3068 11.4019 20.307 12.4021C21.3072 13.4023 21.8691 14.7589 21.8691 16.1734C21.8691 17.5878 21.3072 18.9444 20.307 19.9446C19.3068 20.9448 17.9502 21.5067 16.5357 21.5067C15.1212 21.5067 13.7647 20.9448 12.7645 19.9446C11.7643 18.9444 11.2024 17.5878 11.2024 16.1734ZM16.5357 17.5067C16.1821 17.5067 15.843 17.3662 15.5929 17.1162C15.3429 16.8661 15.2024 16.527 15.2024 16.1734C15.2024 15.8197 15.3429 15.4806 15.5929 15.2306C15.843 14.9805 16.1821 14.84 16.5357 14.84C16.8893 14.84 17.2285 14.9805 17.4785 15.2306C17.7286 15.4806 17.8691 15.8197 17.8691 16.1734C17.8691 16.527 17.7286 16.8661 17.4785 17.1162C17.2285 17.3662 16.8893 17.5067 16.5357 17.5067Z" fill="url(#paint0_linear_430_4080)"/>
<path id="Vector_2" fill-rule="evenodd" clip-rule="evenodd" d="M4.53564 16.1733C4.53564 14.5975 4.84603 13.037 5.44909 11.5811C6.05215 10.1252 6.93606 8.80236 8.05036 7.68806C9.16467 6.57376 10.4875 5.68984 11.9434 5.08679C13.3994 4.48373 14.9598 4.17334 16.5356 4.17334C18.1115 4.17334 19.6719 4.48373 21.1278 5.08679C22.5838 5.68984 23.9066 6.57376 25.0209 7.68806C26.1352 8.80236 27.0191 10.1252 27.6222 11.5811C28.2253 13.037 28.5356 14.5975 28.5356 16.1733C28.5356 19.3559 27.2714 22.4082 25.0209 24.6586C22.7705 26.9091 19.7182 28.1733 16.5356 28.1733C13.353 28.1733 10.3008 26.9091 8.05036 24.6586C5.79993 22.4082 4.53564 19.3559 4.53564 16.1733ZM16.5356 25.5067C15.31 25.5067 14.0963 25.2653 12.9639 24.7962C11.8316 24.3272 10.8027 23.6397 9.93598 22.773C9.0693 21.9063 8.38181 20.8774 7.91277 19.7451C7.44372 18.6127 7.20231 17.399 7.20231 16.1733C7.20231 14.9477 7.44372 13.734 7.91277 12.6016C8.38181 11.4693 9.0693 10.4404 9.93598 9.57368C10.8027 8.707 11.8316 8.01951 12.9639 7.55046C14.0963 7.08142 15.31 6.84001 16.5356 6.84001C19.011 6.84001 21.385 7.82334 23.1353 9.57368C24.8856 11.324 25.869 13.698 25.869 16.1733C25.869 18.6487 24.8856 21.0227 23.1353 22.773C21.385 24.5233 19.011 25.5067 16.5356 25.5067Z" fill="url(#paint1_linear_430_4080)"/>
</g>
</g>
<defs>
<linearGradient id="paint0_linear_430_4080" x1="5.77631" y1="-0.142221" x2="23.5374" y2="24.8901" gradientUnits="userSpaceOnUse">
<stop stop-color="#EE3524"/>
<stop offset="0.934865" stop-color="#F47B20"/>
</linearGradient>
<linearGradient id="paint1_linear_430_4080" x1="-7.67305" y1="-20.5367" x2="32.2895" y2="35.786" gradientUnits="userSpaceOnUse">
<stop stop-color="#EE3524"/>
<stop offset="0.934865" stop-color="#F47B20"/>
</linearGradient>
</defs>
</svg>
