<svg width="36" height="25" viewBox="0 0 36 25" fill="none" xmlns="http://www.w3.org/2000/svg">
<g id="319">
<g id="New Icons">
<g id="Card Brands">
<g id="Color">
<g id="Discover">
<path id="shape" d="M32.1502 23.6613L32.1533 23.6613C33.5468 23.6732 34.69 22.534 34.7074 21.1142L34.7075 3.60932C34.7019 2.9227 34.4286 2.26685 33.9484 1.7863C33.4694 1.30697 32.8238 1.04126 32.1502 1.04698L2.97508 1.04697C2.3046 1.04126 1.65897 1.30697 1.17999 1.7863C0.699779 2.26685 0.426498 2.9227 0.420911 3.60635L0.420898 21.0989C0.426498 21.7856 0.699779 22.4414 1.17999 22.922C1.65897 23.4013 2.3046 23.667 2.97819 23.6613H32.1502ZM32.1487 24.3908C32.1481 24.3908 32.1476 24.3908 32.147 24.3908L32.1502 24.3908H32.1487Z" fill="white" stroke="black" stroke-opacity="0.2" stroke-width="0.729501"/>
<path id="shape_2" d="M18.4578 24.0264H32.1502C32.9188 24.0328 33.6585 23.7337 34.2065 23.1947C34.7544 22.6558 35.0659 21.9212 35.0723 21.1527V17.7114C29.9018 20.6795 24.2943 22.8108 18.4578 24.0264Z" fill="#F27712"/>
<path id="shape_3" d="M33.8648 14.2457H32.6211L31.2205 12.3983H31.0877V14.2457H30.0734V9.65737H31.5707C32.7419 9.65737 33.4181 10.1403 33.4181 11.0097C33.4181 11.7221 32.9954 12.1809 32.2348 12.3258L33.8648 14.2457ZM32.3676 11.0459C32.3676 10.5992 32.0295 10.3698 31.4016 10.3698H31.0877V11.7583H31.3775C32.0295 11.7583 32.3676 11.5168 32.3676 11.0459ZM26.5235 9.65737H29.3972V10.4301H27.5378V11.4565H29.3248V12.2413H27.5378V13.485H29.3972V14.2577H26.5235V9.65737ZM23.2634 14.3664L21.0658 9.64529H22.1767L23.5653 12.7364L24.9659 9.64529H26.0526L23.8309 14.3664H23.2876H23.2634ZM14.0747 14.3543C12.5292 14.3543 11.3217 13.3039 11.3217 11.9394C11.3217 10.6113 12.5533 9.53662 14.0989 9.53662C14.5335 9.53662 14.8958 9.62114 15.3425 9.81433V10.8769C15.0042 10.5445 14.549 10.3581 14.0747 10.3577C13.1088 10.3577 12.3722 11.058 12.3722 11.9394C12.3722 12.8692 13.0967 13.5333 14.123 13.5333C14.5818 13.5333 14.932 13.3884 15.3425 13.0262V14.0887C14.8837 14.2819 14.4973 14.3543 14.0747 14.3543ZM11.0078 12.845C11.0078 13.7385 10.2712 14.3543 9.20869 14.3543C8.43592 14.3543 7.8805 14.0887 7.40959 13.485L8.07369 12.9175C8.3031 13.328 8.68949 13.5333 9.17247 13.5333C9.6313 13.5333 9.95731 13.2556 9.95731 12.8933C9.95731 12.6881 9.86071 12.5311 9.65545 12.4104C9.43038 12.3011 9.19601 12.2122 8.95513 12.1447C8.00124 11.8428 7.67523 11.5168 7.67523 10.8769C7.67523 10.1283 8.37555 9.56077 9.29321 9.56077C9.87279 9.56077 10.392 9.74189 10.8267 10.08L10.2954 10.6837C10.0848 10.4529 9.78678 10.3214 9.47433 10.3215C9.03965 10.3215 8.72571 10.5388 8.72571 10.8286C8.72571 11.0701 8.90683 11.2029 9.51055 11.4082C10.6697 11.7704 11.0078 12.1085 11.0078 12.8571V12.845ZM6.02102 9.65737H7.03528V14.2577H6.02102V9.65737ZM2.76091 14.2577H1.26367V9.65737H2.76091C4.40304 9.65737 5.53804 10.5992 5.53804 11.9515C5.53804 12.6398 5.19996 13.2918 4.60831 13.7265C4.10118 14.0887 3.53368 14.2577 2.74883 14.2577H2.76091ZM3.94421 10.8044C3.60612 10.5388 3.21974 10.4422 2.55564 10.4422H2.27793V13.485H2.55564C3.20767 13.485 3.6182 13.3642 3.94421 13.1227C4.29437 12.833 4.49964 12.3983 4.49964 11.9515C4.49964 11.5048 4.29437 11.0822 3.94421 10.8044Z" fill="black"/>
<path id="shape_4" d="M18.1678 9.53662C16.8396 9.53662 15.7529 10.5992 15.7529 11.9153C15.7529 13.3159 16.7913 14.3664 18.1678 14.3664C19.5202 14.3664 20.5827 13.3039 20.5827 11.9515C20.5827 10.5992 19.5322 9.53662 18.1678 9.53662Z" fill="#F27712"/>
</g>
</g>
</g>
</g>
</g>
</svg>
