<svg width="187" height="218" viewBox="0 0 187 218" fill="none" xmlns="http://www.w3.org/2000/svg">
<g id="Group 1000000990">
<path id="Polygon 2" d="M82.5239 80.0576C88.1894 65.447 107.723 62.7874 117.088 75.3515L138.287 103.791C147.361 115.962 140.038 133.405 124.996 135.453L90.9726 140.085C75.93 142.133 64.2112 127.284 69.6998 113.129L82.5239 80.0576Z" fill="#F47B20"/>
<path id="Polygon 3" d="M86.8237 92.5062L88.9611 86.9943L89.6758 87.2714L90.7445 84.5155C91.1679 83.4235 91.6712 82.4022 92.2431 81.4526L91.5863 81.057C92.8495 78.9597 94.4381 77.1932 96.2448 75.7723L96.7187 76.3749C98.5249 74.9543 100.56 73.8921 102.707 73.2051L102.473 72.475C104.726 71.7545 107.096 71.4318 109.458 71.5239L109.429 72.2899C111.681 72.3777 113.926 72.8573 116.046 73.7433L116.342 73.0359C118.463 73.9221 120.466 75.1996 122.244 76.8829L121.717 77.4395C122.522 78.2017 123.28 79.0513 123.979 79.9903L125.746 82.3602L126.361 81.9021L129.894 86.6419L129.279 87.1001L132.812 91.8399L133.427 91.3818L136.96 96.1216L136.346 96.5798L139.879 101.32L140.493 100.861L144.027 105.601L143.412 106.059L145.179 108.429C145.859 109.342 146.443 110.285 146.935 111.248L147.618 110.899C148.701 113.018 149.357 115.237 149.625 117.463L148.864 117.555C149.132 119.776 148.999 122.007 148.504 124.146L149.25 124.319C148.731 126.563 147.83 128.71 146.592 130.652L145.946 130.24C144.765 132.092 143.267 133.749 141.493 135.114L141.961 135.721C140.184 137.088 138.14 138.174 135.869 138.885L135.64 138.154C134.608 138.477 133.526 138.72 132.398 138.874L129.563 139.26L129.666 140.019L123.996 140.791L123.892 140.032L118.222 140.804L118.325 141.564L112.655 142.336L112.551 141.576L106.881 142.348L106.984 143.108L101.314 143.88L101.21 143.12L98.3751 143.506C97.2468 143.66 96.1393 143.715 95.0587 143.679L95.0334 144.445C92.6548 144.367 90.3956 143.867 88.3179 143.025L88.6059 142.315C86.5322 141.474 84.6453 140.277 83.0125 138.808L82.4998 139.378C80.7874 137.838 79.3453 136.011 78.245 133.987L78.9185 133.621C77.8695 131.691 77.1442 129.578 76.8086 127.366L76.0507 127.481C75.7144 125.264 75.7536 122.951 76.2304 120.619L76.9814 120.772C77.198 119.713 77.5088 118.649 77.9205 117.587L78.9891 114.831L78.2744 114.554L80.4117 109.042L81.1265 109.319L83.2638 103.807L82.549 103.53L84.6864 98.0181L85.4011 98.2953L87.5385 92.7834L86.8237 92.5062Z" stroke="#F47B20" stroke-width="1.53323" stroke-dasharray="6.13 6.13"/>
</g>
</svg>
