<svg width="89" height="89" viewBox="0 0 89 89" fill="none" xmlns="http://www.w3.org/2000/svg">
<g id="ant-design:play-circle-filled">
<g id="Group 35543">
<path id="Vector" d="M44.0132 6.00098C22.7419 6.00098 5.49438 23.2485 5.49438 44.5198C5.49438 65.7911 22.7419 83.0386 44.0132 83.0386C65.2845 83.0386 82.532 65.7911 82.532 44.5198C82.532 23.2485 65.2845 6.00098 44.0132 6.00098ZM56.4028 45.113L37.6249 58.7752C37.522 58.8491 37.4006 58.8933 37.2742 58.9028C37.1478 58.9123 37.0212 58.8868 36.9084 58.829C36.7955 58.7713 36.7008 58.6835 36.6345 58.5754C36.5683 58.4673 36.5332 58.3431 36.533 58.2163V30.9092C36.5325 30.7822 36.5673 30.6575 36.6334 30.5491C36.6995 30.4406 36.7943 30.3525 36.9074 30.2947C37.0205 30.2368 37.1474 30.2114 37.274 30.2212C37.4007 30.231 37.5221 30.2757 37.6249 30.3504L56.4028 44.0039C56.4915 44.0666 56.5639 44.1497 56.6138 44.2462C56.6638 44.3427 56.6899 44.4498 56.6899 44.5585C56.6899 44.6671 56.6638 44.7742 56.6138 44.8707C56.5639 44.9672 56.4915 45.0503 56.4028 45.113Z" fill="#B21B20"/>
<path id="Polygon 1" d="M60.2579 44.0444C60.6088 44.2641 60.6088 44.7752 60.2579 44.9948L37.0693 59.5142C36.6959 59.748 36.2111 59.4795 36.2111 59.039L36.2111 30.0003C36.2111 29.5597 36.6959 29.2913 37.0693 29.5251L60.2579 44.0444Z" fill="white"/>
</g>
</g>
</svg>
