<svg width="44" height="44" viewBox="0 0 44 44" fill="none" xmlns="http://www.w3.org/2000/svg">
<g id="bxs:quote-left">
<path id="Vector" d="M6.83468 11.4338C9.34838 8.70865 13.1521 7.32727 18.1383 7.32727H19.93V12.378L18.4895 12.6664C16.0349 13.1574 14.3274 14.1231 13.4137 15.5403C12.9369 16.3038 12.6665 17.1779 12.6289 18.0773H18.1383C18.6135 18.0773 19.0692 18.266 19.4052 18.602C19.7412 18.938 19.93 19.3938 19.93 19.8689V32.4106C19.93 34.3868 18.3228 35.9939 16.3466 35.9939H5.59663C5.12145 35.9939 4.66574 35.8052 4.32973 35.4692C3.99373 35.1332 3.80497 34.6775 3.80497 34.2023V25.2439L3.81034 20.0141C3.79422 19.8152 3.4538 15.1031 6.83468 11.4338ZM36.055 35.9939H25.305C24.8298 35.9939 24.3741 35.8052 24.0381 35.4692C23.7021 35.1332 23.5133 34.6775 23.5133 34.2023V25.2439L23.5187 20.0141C23.5026 19.8152 23.1621 15.1031 26.543 11.4338C29.0567 8.70865 32.8604 7.32727 37.8466 7.32727H39.6383V12.378L38.1978 12.6664C35.7432 13.1574 34.0358 14.1231 33.122 15.5403C32.6452 16.3038 32.3748 17.1779 32.3373 18.0773H37.8466C38.3218 18.0773 38.7775 18.266 39.1135 18.602C39.4495 18.938 39.6383 19.3938 39.6383 19.8689V32.4106C39.6383 34.3868 38.0312 35.9939 36.055 35.9939Z" fill="url(#paint0_linear_430_4141)"/>
</g>
<defs>
<linearGradient id="paint0_linear_430_4141" x1="-14.4403" y1="-22.1875" x2="28.9734" y2="54.32" gradientUnits="userSpaceOnUse">
<stop stop-color="#EE3524"/>
<stop offset="0.934865" stop-color="#F47B20"/>
</linearGradient>
</defs>
</svg>
